<svg width="134" height="52" viewBox="0 0 134 52" fill="none" xmlns="http://www.w3.org/2000/svg">
<g clip-path="url(#clip0_4_2)">
<rect width="134" height="52" fill="white"/>
<path d="M0.720982 21V1.19904H4.90742V9.36887H13.406V1.19904H17.5827V21H13.406V12.8205H4.90742V21H0.720982ZM26.0914 21.2901C24.5637 21.2901 23.2488 20.9807 22.1466 20.3619C21.0509 19.7367 20.2065 18.8536 19.6135 17.7127C19.0205 16.5654 18.724 15.2086 18.724 13.6423C18.724 12.1147 19.0205 10.774 19.6135 9.62025C20.2065 8.46648 21.0412 7.56732 22.1176 6.92275C23.2005 6.27819 24.4703 5.95591 25.927 5.95591C26.9067 5.95591 27.8188 6.11383 28.6632 6.42966C29.514 6.73905 30.2552 7.20636 30.8869 7.83159C31.525 8.45681 32.0213 9.24318 32.3758 10.1907C32.7303 11.1317 32.9076 12.2339 32.9076 13.4973V14.6285H20.3676V12.076H29.0306C29.0306 11.483 28.9016 10.9577 28.6438 10.5001C28.386 10.0424 28.0283 9.6847 27.5706 9.42688C27.1194 9.16261 26.5941 9.03047 25.9947 9.03047C25.3694 9.03047 24.8151 9.1755 24.3317 9.46555C23.8547 9.74916 23.4809 10.1327 23.2102 10.6161C22.9394 11.0931 22.8009 11.6248 22.7944 12.2114V14.6382C22.7944 15.373 22.9298 16.0079 23.2005 16.5428C23.4776 17.0778 23.8676 17.4904 24.3704 17.7804C24.8731 18.0705 25.4693 18.2155 26.159 18.2155C26.6167 18.2155 27.0356 18.151 27.4159 18.0221C27.7962 17.8932 28.1217 17.6998 28.3924 17.442C28.6632 17.1842 28.8694 16.8684 29.0112 16.4945L32.8206 16.7459C32.6272 17.6612 32.2308 18.4604 31.6314 19.1437C31.0384 19.8205 30.2713 20.349 29.3303 20.7293C28.3957 21.1031 27.316 21.2901 26.0914 21.2901ZM38.1966 21.2804C37.2491 21.2804 36.4047 21.116 35.6635 20.7873C34.9222 20.4521 34.3357 19.959 33.9038 19.308C33.4784 18.6506 33.2657 17.832 33.2657 16.8522C33.2657 16.0272 33.4172 15.3343 33.7201 14.7735C34.0231 14.2128 34.4356 13.7616 34.9577 13.4199C35.4798 13.0783 36.0728 12.8205 36.7367 12.6465C37.407 12.4724 38.1096 12.35 38.8444 12.2791C39.7081 12.1888 40.4042 12.105 40.9328 12.0277C41.4613 11.9439 41.8448 11.8214 42.0833 11.6603C42.3218 11.4991 42.4411 11.2607 42.4411 10.9448V10.8868C42.4411 10.2745 42.2477 9.80073 41.861 9.46555C41.4807 9.13038 40.9392 8.96279 40.2367 8.96279C39.4954 8.96279 38.9056 9.12716 38.4673 9.45588C38.029 9.77817 37.739 10.1842 37.5972 10.6741L33.7878 10.3647C33.9812 9.46233 34.3615 8.68241 34.9287 8.02496C35.4959 7.36106 36.2275 6.85185 37.1234 6.49734C38.0258 6.13639 39.07 5.95591 40.256 5.95591C41.081 5.95591 41.8706 6.05259 42.6248 6.24596C43.3854 6.43933 44.0589 6.73905 44.6455 7.14513C45.2385 7.5512 45.7058 8.0733 46.0474 8.71141C46.389 9.34309 46.5598 10.1004 46.5598 10.9835V21H42.6538V18.9406H42.5378C42.2993 19.4047 41.9802 19.814 41.5806 20.1685C41.1809 20.5166 40.7007 20.7905 40.14 20.9903C39.5792 21.1837 38.9314 21.2804 38.1966 21.2804ZM39.3762 18.4379C39.9821 18.4379 40.517 18.3186 40.9811 18.0801C41.4452 17.8352 41.8094 17.5065 42.0737 17.094C42.3379 16.6814 42.4701 16.2141 42.4701 15.692V14.1161C42.3412 14.1999 42.1639 14.2772 41.9383 14.3481C41.7192 14.4126 41.471 14.4738 41.1938 14.5318C40.9167 14.5834 40.6395 14.6317 40.3624 14.6768C40.0852 14.7155 39.8338 14.751 39.6082 14.7832C39.1248 14.8541 38.7026 14.9669 38.3416 15.1216C37.9807 15.2763 37.7003 15.4858 37.5005 15.75C37.3007 16.0079 37.2008 16.3301 37.2008 16.7169C37.2008 17.2777 37.4038 17.7063 37.8099 18.0028C38.2224 18.2928 38.7445 18.4379 39.3762 18.4379ZM52.2404 1.19904V21H48.1217V1.19904H52.2404ZM61.8053 6.14928V9.24318H52.862V6.14928H61.8053ZM54.8924 2.59129H59.0111V16.4365C59.0111 16.8168 59.0691 17.1133 59.1852 17.326C59.3012 17.5323 59.4623 17.6773 59.6686 17.7611C59.8813 17.8449 60.1262 17.8868 60.4034 17.8868C60.5968 17.8868 60.7901 17.8706 60.9835 17.8384C61.1769 17.7997 61.3251 17.7707 61.4282 17.7514L62.076 20.8163C61.8698 20.8808 61.5797 20.9549 61.2059 21.0387C60.832 21.1289 60.3776 21.1837 59.8426 21.203C58.85 21.2417 57.9798 21.1096 57.2321 20.8066C56.4909 20.5037 55.914 20.0332 55.5015 19.395C55.089 18.7569 54.8859 17.9512 54.8924 16.9779V2.59129ZM67.2925 12.4144V21H63.1738V1.19904H67.1765V8.76943H67.3505C67.6857 7.89282 68.2271 7.20636 68.9748 6.71005C69.7225 6.20729 70.6604 5.95591 71.7884 5.95591C72.8197 5.95591 73.7188 6.18151 74.4858 6.6327C75.2593 7.07745 75.8588 7.71879 76.2842 8.55672C76.716 9.38821 76.9287 10.3841 76.9223 11.5443V21H72.8035V12.2791C72.81 11.3638 72.5779 10.6515 72.1074 10.1423C71.6433 9.63314 70.9923 9.37854 70.1544 9.37854C69.5936 9.37854 69.0973 9.49778 68.6654 9.73627C68.24 9.97476 67.9049 10.3228 67.6599 10.7805C67.4214 11.2317 67.299 11.7763 67.2925 12.4144ZM85.6267 21H78.6074V1.19904H85.6847C87.6764 1.19904 89.3909 1.59544 90.8283 2.38826C92.2657 3.17462 93.3711 4.30583 94.1446 5.78188C94.9245 7.25793 95.3145 9.02403 95.3145 11.0802C95.3145 13.1428 94.9245 14.9153 94.1446 16.3978C93.3711 17.8803 92.2592 19.018 90.809 19.8108C89.3652 20.6036 87.6377 21 85.6267 21ZM82.7938 17.413H85.4527C86.6902 17.413 87.7312 17.1939 88.5756 16.7556C89.4264 16.3108 90.0645 15.6243 90.4899 14.6962C90.9218 13.7616 91.1377 12.5562 91.1377 11.0802C91.1377 9.61702 90.9218 8.42136 90.4899 7.49319C90.0645 6.56502 89.4296 5.88178 88.5852 5.44348C87.7409 5.00518 86.6999 4.78603 85.4623 4.78603H82.7938V17.413ZM100.939 21.2804C99.992 21.2804 99.1476 21.116 98.4063 20.7873C97.6651 20.4521 97.0785 19.959 96.6467 19.308C96.2213 18.6506 96.0086 17.832 96.0086 16.8522C96.0086 16.0272 96.16 15.3343 96.463 14.7735C96.7659 14.2128 97.1784 13.7616 97.7005 13.4199C98.2226 13.0783 98.8156 12.8205 99.4795 12.6465C100.15 12.4724 100.852 12.35 101.587 12.2791C102.451 12.1888 103.147 12.105 103.676 12.0277C104.204 11.9439 104.588 11.8214 104.826 11.6603C105.065 11.4991 105.184 11.2607 105.184 10.9448V10.8868C105.184 10.2745 104.991 9.80073 104.604 9.46555C104.224 9.13038 103.682 8.96279 102.98 8.96279C102.238 8.96279 101.648 9.12716 101.21 9.45588C100.772 9.77817 100.482 10.1842 100.34 10.6741L96.5307 10.3647C96.724 9.46233 97.1043 8.68241 97.6715 8.02496C98.2388 7.36106 98.9703 6.85185 99.8663 6.49734C100.769 6.13639 101.813 5.95591 102.999 5.95591C103.824 5.95591 104.613 6.05259 105.368 6.24596C106.128 6.43933 106.802 6.73905 107.388 7.14513C107.981 7.5512 108.449 8.0733 108.79 8.71141C109.132 9.34309 109.303 10.1004 109.303 10.9835V21H105.397V18.9406H105.281C105.042 19.4047 104.723 19.814 104.323 20.1685C103.924 20.5166 103.444 20.7905 102.883 20.9903C102.322 21.1837 101.674 21.2804 100.939 21.2804ZM102.119 18.4379C102.725 18.4379 103.26 18.3186 103.724 18.0801C104.188 17.8352 104.552 17.5065 104.817 17.094C105.081 16.6814 105.213 16.2141 105.213 15.692V14.1161C105.084 14.1999 104.907 14.2772 104.681 14.3481C104.462 14.4126 104.214 14.4738 103.937 14.5318C103.66 14.5834 103.382 14.6317 103.105 14.6768C102.828 14.7155 102.577 14.751 102.351 14.7832C101.868 14.8541 101.445 14.9669 101.084 15.1216C100.724 15.2763 100.443 15.4858 100.243 15.75C100.044 16.0079 99.9436 16.3301 99.9436 16.7169C99.9436 17.2777 100.147 17.7063 100.553 18.0028C100.965 18.2928 101.487 18.4379 102.119 18.4379ZM118.764 6.14928V9.24318H109.82V6.14928H118.764ZM111.851 2.59129H115.969V16.4365C115.969 16.8168 116.027 17.1133 116.143 17.326C116.259 17.5323 116.421 17.6773 116.627 17.7611C116.84 17.8449 117.085 17.8868 117.362 17.8868C117.555 17.8868 117.748 17.8706 117.942 17.8384C118.135 17.7997 118.283 17.7707 118.387 17.7514L119.034 20.8163C118.828 20.8808 118.538 20.9549 118.164 21.0387C117.79 21.1289 117.336 21.1837 116.801 21.203C115.808 21.2417 114.938 21.1096 114.19 20.8066C113.449 20.5037 112.872 20.0332 112.46 19.395C112.047 18.7569 111.844 17.9512 111.851 16.9779V2.59129ZM124.048 21.2804C123.1 21.2804 122.256 21.116 121.515 20.7873C120.773 20.4521 120.187 19.959 119.755 19.308C119.33 18.6506 119.117 17.832 119.117 16.8522C119.117 16.0272 119.268 15.3343 119.571 14.7735C119.874 14.2128 120.287 13.7616 120.809 13.4199C121.331 13.0783 121.924 12.8205 122.588 12.6465C123.258 12.4724 123.961 12.35 124.696 12.2791C125.559 12.1888 126.255 12.105 126.784 12.0277C127.313 11.9439 127.696 11.8214 127.935 11.6603C128.173 11.4991 128.292 11.2607 128.292 10.9448V10.8868C128.292 10.2745 128.099 9.80073 127.712 9.46555C127.332 9.13038 126.79 8.96279 126.088 8.96279C125.347 8.96279 124.757 9.12716 124.319 9.45588C123.88 9.77817 123.59 10.1842 123.448 10.6741L119.639 10.3647C119.832 9.46233 120.213 8.68241 120.78 8.02496C121.347 7.36106 122.079 6.85185 122.975 6.49734C123.877 6.13639 124.921 5.95591 126.107 5.95591C126.932 5.95591 127.722 6.05259 128.476 6.24596C129.237 6.43933 129.91 6.73905 130.497 7.14513C131.09 7.5512 131.557 8.0733 131.899 8.71141C132.24 9.34309 132.411 10.1004 132.411 10.9835V21H128.505V18.9406H128.389C128.15 19.4047 127.831 19.814 127.432 20.1685C127.032 20.5166 126.552 20.7905 125.991 20.9903C125.43 21.1837 124.783 21.2804 124.048 21.2804ZM125.227 18.4379C125.833 18.4379 126.368 18.3186 126.832 18.0801C127.296 17.8352 127.661 17.5065 127.925 17.094C128.189 16.6814 128.321 16.2141 128.321 15.692V14.1161C128.192 14.1999 128.015 14.2772 127.789 14.3481C127.57 14.4126 127.322 14.4738 127.045 14.5318C126.768 14.5834 126.491 14.6317 126.214 14.6768C125.936 14.7155 125.685 14.751 125.459 14.7832C124.976 14.8541 124.554 14.9669 124.193 15.1216C123.832 15.2763 123.551 15.4858 123.352 15.75C123.152 16.0079 123.052 16.3301 123.052 16.7169C123.052 17.2777 123.255 17.7063 123.661 18.0028C124.074 18.2928 124.596 18.4379 125.227 18.4379Z" fill="#456E8B"/>
<path d="M8.19469 39.1161H11.7527L13.5413 41.4172L15.301 43.4669L18.6173 47.6243H14.7112L12.4295 44.8205L11.2596 43.1575L8.19469 39.1161ZM18.917 36.0995C18.917 38.2588 18.5077 40.0958 17.6891 41.6105C16.8769 43.1253 15.7683 44.2822 14.3631 45.0815C12.9644 45.8743 11.3917 46.2707 9.64495 46.2707C7.88529 46.2707 6.30612 45.8711 4.90742 45.0718C3.50872 44.2726 2.40329 43.1156 1.59114 41.6009C0.778993 40.0861 0.372918 38.2524 0.372918 36.0995C0.372918 33.9402 0.778993 32.1032 1.59114 30.5885C2.40329 29.0738 3.50872 27.92 4.90742 27.1272C6.30612 26.328 7.88529 25.9283 9.64495 25.9283C11.3917 25.9283 12.9644 26.328 14.3631 27.1272C15.7683 27.92 16.8769 29.0738 17.6891 30.5885C18.5077 32.1032 18.917 33.9402 18.917 36.0995ZM14.6725 36.0995C14.6725 34.7008 14.4631 33.5213 14.0441 32.5609C13.6316 31.6005 13.0482 30.8721 12.2941 30.3758C11.54 29.8795 10.6569 29.6313 9.64495 29.6313C8.63299 29.6313 7.74994 29.8795 6.9958 30.3758C6.24166 30.8721 5.65511 31.6005 5.23614 32.5609C4.82362 33.5213 4.61736 34.7008 4.61736 36.0995C4.61736 37.4982 4.82362 38.6778 5.23614 39.6382C5.65511 40.5986 6.24166 41.3269 6.9958 41.8232C7.74994 42.3195 8.63299 42.5677 9.64495 42.5677C10.6569 42.5677 11.54 42.3195 12.2941 41.8232C13.0482 41.3269 13.6316 40.5986 14.0441 39.6382C14.4631 38.6778 14.6725 37.4982 14.6725 36.0995ZM29.8306 39.6768V31.1493H33.9494V46H29.995V43.3025H29.8403C29.5051 44.1727 28.9476 44.872 28.1676 45.4006C27.3942 45.9291 26.4499 46.1934 25.3348 46.1934C24.3422 46.1934 23.4688 45.9678 22.7146 45.5166C21.9605 45.0654 21.3707 44.424 20.9453 43.5926C20.5264 42.7611 20.3137 41.7652 20.3072 40.605V31.1493H24.426V39.8702C24.4324 40.7468 24.6677 41.4397 25.1318 41.9489C25.5958 42.4581 26.2178 42.7127 26.9978 42.7127C27.4941 42.7127 27.9582 42.5999 28.39 42.3743C28.8219 42.1423 29.1699 41.8007 29.4342 41.3495C29.7049 40.8983 29.8371 40.3407 29.8306 39.6768ZM39.8451 46.2804C38.8976 46.2804 38.0532 46.116 37.312 45.7873C36.5707 45.4521 35.9842 44.959 35.5523 44.308C35.1269 43.6506 34.9142 42.832 34.9142 41.8522C34.9142 41.0272 35.0657 40.3343 35.3686 39.7735C35.6715 39.2128 36.0841 38.7616 36.6062 38.4199C37.1283 38.0783 37.7213 37.8205 38.3852 37.6465C39.0555 37.4724 39.7581 37.35 40.4929 37.2791C41.3566 37.1888 42.0527 37.105 42.5813 37.0277C43.1098 36.9439 43.4933 36.8214 43.7318 36.6603C43.9703 36.4991 44.0895 36.2607 44.0895 35.9448V35.8868C44.0895 35.2745 43.8962 34.8007 43.5094 34.4656C43.1291 34.1304 42.5877 33.9628 41.8851 33.9628C41.1439 33.9628 40.5541 34.1272 40.1158 34.4559C39.6775 34.7782 39.3874 35.1842 39.2456 35.6741L35.4363 35.3647C35.6297 34.4623 36.0099 33.6824 36.5772 33.025C37.1444 32.3611 37.876 31.8519 38.7719 31.4973C39.6743 31.1364 40.7185 30.9559 41.9045 30.9559C42.7295 30.9559 43.5191 31.0526 44.2732 31.246C45.0338 31.4393 45.7074 31.7391 46.2939 32.1451C46.8869 32.5512 47.3542 33.0733 47.6959 33.7114C48.0375 34.3431 48.2083 35.1004 48.2083 35.9835V46H44.3022V43.9406H44.1862C43.9477 44.4047 43.6287 44.814 43.229 45.1685C42.8294 45.5166 42.3492 45.7905 41.7884 45.9903C41.2277 46.1837 40.5799 46.2804 39.8451 46.2804ZM41.0246 43.4379C41.6305 43.4379 42.1655 43.3186 42.6296 43.0801C43.0937 42.8352 43.4579 42.5065 43.7221 42.094C43.9864 41.6814 44.1185 41.2141 44.1185 40.692V39.1161C43.9896 39.1999 43.8124 39.2772 43.5868 39.3481C43.3676 39.4126 43.1195 39.4738 42.8423 39.5318C42.5651 39.5834 42.288 39.6317 42.0108 39.6768C41.7337 39.7155 41.4823 39.751 41.2567 39.7832C40.7733 39.8541 40.3511 39.9669 39.9901 40.1216C39.6292 40.2763 39.3488 40.4858 39.149 40.75C38.9491 41.0079 38.8492 41.3301 38.8492 41.7169C38.8492 42.2777 39.0523 42.7063 39.4584 43.0028C39.8709 43.2928 40.393 43.4379 41.0246 43.4379ZM53.8889 26.199V46H49.7701V26.199H53.8889ZM55.5547 46V31.1493H59.6734V46H55.5547ZM57.6237 29.2349C57.0114 29.2349 56.4861 29.0319 56.0478 28.6258C55.6159 28.2133 55.4 27.7202 55.4 27.1465C55.4 26.5793 55.6159 26.0927 56.0478 25.6866C56.4861 25.2741 57.0114 25.0678 57.6237 25.0678C58.236 25.0678 58.7581 25.2741 59.19 25.6866C59.6283 26.0927 59.8474 26.5793 59.8474 27.1465C59.8474 27.7202 59.6283 28.2133 59.19 28.6258C58.7581 29.0319 58.236 29.2349 57.6237 29.2349ZM69.2383 31.1493V34.2432H60.295V31.1493H69.2383ZM62.3254 27.5913H66.4441V41.4365C66.4441 41.8168 66.5021 42.1133 66.6182 42.326C66.7342 42.5323 66.8953 42.6773 67.1016 42.7611C67.3143 42.8449 67.5592 42.8868 67.8364 42.8868C68.0298 42.8868 68.2231 42.8706 68.4165 42.8384C68.6099 42.7997 68.7581 42.7707 68.8612 42.7514L69.509 45.8163C69.3028 45.8808 69.0127 45.9549 68.6389 46.0387C68.265 46.1289 67.8106 46.1837 67.2756 46.203C66.283 46.2417 65.4128 46.1096 64.6651 45.8066C63.9239 45.5037 63.347 45.0332 62.9345 44.395C62.522 43.7569 62.3189 42.9512 62.3254 41.9779V27.5913ZM72.8305 51.569C72.3084 51.569 71.8186 51.5271 71.3609 51.4433C70.9097 51.366 70.5359 51.2661 70.2394 51.1436L71.1675 48.069C71.651 48.2173 72.086 48.2979 72.4728 48.3108C72.866 48.3236 73.2044 48.2334 73.488 48.04C73.778 47.8467 74.0133 47.5179 74.1938 47.0539L74.4355 46.4254L69.1082 31.1493H73.4396L76.5142 42.0553H76.6689L79.7725 31.1493H84.1329L78.3609 47.605C78.0837 48.4042 77.7066 49.1003 77.2297 49.6933C76.7591 50.2928 76.1629 50.7536 75.441 51.0759C74.7191 51.4047 73.8489 51.569 72.8305 51.569Z" fill="#D34730"/>
<path d="M87.0145 46.2514C86.3764 46.2514 85.8285 46.0258 85.3709 45.5746C84.9197 45.1169 84.6941 44.5691 84.6941 43.931C84.6941 43.2993 84.9197 42.7579 85.3709 42.3067C85.8285 41.8555 86.3764 41.6299 87.0145 41.6299C87.6333 41.6299 88.1747 41.8555 88.6388 42.3067C89.1029 42.7579 89.3349 43.2993 89.3349 43.931C89.3349 44.3564 89.2254 44.7463 89.0062 45.1008C88.7935 45.4489 88.5131 45.7293 88.165 45.942C87.817 46.1482 87.4335 46.2514 87.0145 46.2514ZM97.7928 46.2901C96.2909 46.2901 94.9922 45.971 93.8964 45.3329C92.8071 44.6883 91.9659 43.7924 91.3729 42.6451C90.7799 41.4913 90.4834 40.1538 90.4834 38.6326C90.4834 37.0986 90.7799 35.7579 91.3729 34.6106C91.9659 33.4568 92.8071 32.5609 93.8964 31.9228C94.9922 31.2782 96.2909 30.9559 97.7928 30.9559C99.2946 30.9559 100.59 31.2782 101.679 31.9228C102.775 32.5609 103.62 33.4568 104.213 34.6106C104.806 35.7579 105.102 37.0986 105.102 38.6326C105.102 40.1538 104.806 41.4913 104.213 42.6451C103.62 43.7924 102.775 44.6883 101.679 45.3329C100.59 45.971 99.2946 46.2901 97.7928 46.2901ZM97.8121 43.0995C98.4954 43.0995 99.0658 42.9061 99.5234 42.5194C99.9811 42.1262 100.326 41.5912 100.558 40.9144C100.796 40.2376 100.916 39.4674 100.916 38.6036C100.916 37.7399 100.796 36.9697 100.558 36.2929C100.326 35.6161 99.9811 35.0811 99.5234 34.6879C99.0658 34.2947 98.4954 34.0982 97.8121 34.0982C97.1224 34.0982 96.5423 34.2947 96.0718 34.6879C95.6077 35.0811 95.2564 35.6161 95.0179 36.2929C94.7859 36.9697 94.6699 37.7399 94.6699 38.6036C94.6699 39.4674 94.7859 40.2376 95.0179 40.9144C95.2564 41.5912 95.6077 42.1262 96.0718 42.5194C96.5423 42.9061 97.1224 43.0995 97.8121 43.0995ZM106.147 46V31.1493H110.14V33.7404H110.294C110.565 32.8187 111.02 32.1226 111.658 31.652C112.296 31.1751 113.031 30.9366 113.862 30.9366C114.068 30.9366 114.291 30.9495 114.529 30.9752C114.768 31.001 114.977 31.0365 115.158 31.0816V34.7363C114.964 34.6783 114.697 34.6267 114.355 34.5816C114.014 34.5365 113.701 34.5139 113.417 34.5139C112.811 34.5139 112.27 34.646 111.793 34.9103C111.323 35.1681 110.949 35.5291 110.672 35.9932C110.401 36.4573 110.265 36.9922 110.265 37.5981V46H106.147ZM121.653 51.8784C120.319 51.8784 119.175 51.6947 118.221 51.3273C117.273 50.9664 116.519 50.4733 115.958 49.848C115.397 49.2228 115.033 48.5202 114.866 47.7403L118.675 47.2279C118.791 47.5244 118.975 47.8016 119.226 48.0594C119.477 48.3172 119.809 48.5235 120.222 48.6782C120.641 48.8393 121.15 48.9199 121.75 48.9199C122.645 48.9199 123.383 48.7007 123.964 48.2624C124.55 47.8306 124.843 47.1054 124.843 46.087V43.3702H124.669C124.489 43.7827 124.218 44.1727 123.857 44.5401C123.496 44.9075 123.032 45.2072 122.465 45.4392C121.898 45.6713 121.221 45.7873 120.435 45.7873C119.32 45.7873 118.304 45.5295 117.389 45.0138C116.48 44.4917 115.755 43.6957 115.214 42.6257C114.679 41.5493 114.411 40.1893 114.411 38.5456C114.411 36.8633 114.685 35.4582 115.233 34.3302C115.781 33.2022 116.509 32.3578 117.418 31.7971C118.333 31.2363 119.336 30.9559 120.425 30.9559C121.256 30.9559 121.953 31.0977 122.513 31.3813C123.074 31.6585 123.525 32.0065 123.867 32.4255C124.215 32.838 124.482 33.2441 124.669 33.6437H124.824V31.1493H128.914V46.145C128.914 47.4084 128.604 48.4655 127.986 49.3163C127.367 50.1671 126.51 50.8052 125.414 51.2306C124.325 51.6625 123.071 51.8784 121.653 51.8784ZM121.74 42.6934C122.404 42.6934 122.965 42.529 123.422 42.2003C123.886 41.8651 124.241 41.3882 124.486 40.7694C124.737 40.1441 124.863 39.3965 124.863 38.5263C124.863 37.6561 124.74 36.902 124.495 36.2639C124.25 35.6193 123.896 35.1198 123.432 34.7653C122.968 34.4108 122.404 34.2335 121.74 34.2335C121.063 34.2335 120.493 34.4172 120.029 34.7846C119.564 35.1456 119.213 35.6483 118.975 36.2929C118.736 36.9375 118.617 37.6819 118.617 38.5263C118.617 39.3836 118.736 40.1248 118.975 40.75C119.22 41.3688 119.571 41.849 120.029 42.1906C120.493 42.5258 121.063 42.6934 121.74 42.6934Z" fill="#466E89"/>
<path d="M78.4102 26.2263H132.863" stroke="#5F5F5F" stroke-width="2.26886"/>
</g>
<defs>
<clipPath id="clip0_4_2">
<rect width="134" height="52" fill="white"/>
</clipPath>
</defs>
</svg>
