<svg width="157" height="80" viewBox="0 0 157 80" fill="none" xmlns="http://www.w3.org/2000/svg">
<rect width="156.098" height="80" fill="white"/>
<path d="M11.721 37V17.199H15.9074V25.3689H24.406V17.199H28.5827V37H24.406V28.8205H15.9074V37H11.721ZM37.0914 37.2901C35.5637 37.2901 34.2488 36.9807 33.1466 36.3619C32.0509 35.7367 31.2065 34.8536 30.6135 33.7127C30.0205 32.5654 29.724 31.2086 29.724 29.6423C29.724 28.1147 30.0205 26.774 30.6135 25.6202C31.2065 24.4665 32.0412 23.5673 33.1176 22.9228C34.2005 22.2782 35.4703 21.9559 36.927 21.9559C37.9067 21.9559 38.8188 22.1138 39.6632 22.4297C40.514 22.7391 41.2552 23.2064 41.8869 23.8316C42.525 24.4568 43.0213 25.2432 43.3758 26.1907C43.7303 27.1317 43.9076 28.2339 43.9076 29.4973V30.6285H31.3676V28.076H40.0306C40.0306 27.483 39.9016 26.9577 39.6438 26.5001C39.386 26.0424 39.0283 25.6847 38.5706 25.4269C38.1194 25.1626 37.5941 25.0305 36.9947 25.0305C36.3694 25.0305 35.8151 25.1755 35.3317 25.4656C34.8547 25.7492 34.4809 26.1327 34.2102 26.6161C33.9394 27.0931 33.8009 27.6248 33.7944 28.2114V30.6382C33.7944 31.373 33.9298 32.0079 34.2005 32.5428C34.4776 33.0778 34.8676 33.4904 35.3704 33.7804C35.8731 34.0705 36.4693 34.2155 37.159 34.2155C37.6167 34.2155 38.0356 34.151 38.4159 34.0221C38.7962 33.8932 39.1217 33.6998 39.3924 33.442C39.6632 33.1842 39.8694 32.8684 40.0112 32.4945L43.8206 32.7459C43.6272 33.6612 43.2308 34.4604 42.6314 35.1437C42.0384 35.8205 41.2713 36.349 40.3303 36.7293C39.3957 37.1031 38.316 37.2901 37.0914 37.2901ZM49.1966 37.2804C48.2491 37.2804 47.4047 37.116 46.6635 36.7873C45.9222 36.4521 45.3357 35.959 44.9038 35.308C44.4784 34.6506 44.2657 33.832 44.2657 32.8522C44.2657 32.0272 44.4172 31.3343 44.7201 30.7735C45.0231 30.2128 45.4356 29.7616 45.9577 29.4199C46.4798 29.0783 47.0728 28.8205 47.7367 28.6465C48.407 28.4724 49.1096 28.35 49.8444 28.2791C50.7081 28.1888 51.4042 28.105 51.9328 28.0277C52.4613 27.9439 52.8448 27.8214 53.0833 27.6603C53.3218 27.4991 53.4411 27.2607 53.4411 26.9448V26.8868C53.4411 26.2745 53.2477 25.8007 52.861 25.4656C52.4807 25.1304 51.9392 24.9628 51.2367 24.9628C50.4954 24.9628 49.9056 25.1272 49.4673 25.4559C49.029 25.7782 48.739 26.1842 48.5972 26.6741L44.7878 26.3647C44.9812 25.4623 45.3615 24.6824 45.9287 24.025C46.4959 23.3611 47.2275 22.8519 48.1234 22.4973C49.0258 22.1364 50.07 21.9559 51.256 21.9559C52.081 21.9559 52.8706 22.0526 53.6248 22.246C54.3854 22.4393 55.0589 22.7391 55.6455 23.1451C56.2385 23.5512 56.7058 24.0733 57.0474 24.7114C57.389 25.3431 57.5598 26.1004 57.5598 26.9835V37H53.6538V34.9406H53.5378C53.2993 35.4047 52.9802 35.814 52.5806 36.1685C52.1809 36.5166 51.7007 36.7905 51.14 36.9903C50.5792 37.1837 49.9314 37.2804 49.1966 37.2804ZM50.3762 34.4379C50.9821 34.4379 51.517 34.3186 51.9811 34.0801C52.4452 33.8352 52.8094 33.5065 53.0737 33.094C53.3379 32.6814 53.4701 32.2141 53.4701 31.692V30.1161C53.3412 30.1999 53.1639 30.2772 52.9383 30.3481C52.7192 30.4126 52.471 30.4738 52.1938 30.5318C51.9167 30.5834 51.6395 30.6317 51.3624 30.6768C51.0852 30.7155 50.8338 30.751 50.6082 30.7832C50.1248 30.8541 49.7026 30.9669 49.3416 31.1216C48.9807 31.2763 48.7003 31.4858 48.5005 31.75C48.3007 32.0079 48.2008 32.3301 48.2008 32.7169C48.2008 33.2777 48.4038 33.7063 48.8099 34.0028C49.2224 34.2928 49.7445 34.4379 50.3762 34.4379ZM63.2404 17.199V37H59.1217V17.199H63.2404ZM72.8053 22.1493V25.2432H63.862V22.1493H72.8053ZM65.8924 18.5913H70.0111V32.4365C70.0111 32.8168 70.0691 33.1133 70.1852 33.326C70.3012 33.5323 70.4623 33.6773 70.6686 33.7611C70.8813 33.8449 71.1262 33.8868 71.4034 33.8868C71.5968 33.8868 71.7901 33.8706 71.9835 33.8384C72.1769 33.7997 72.3251 33.7707 72.4282 33.7514L73.076 36.8163C72.8698 36.8808 72.5797 36.9549 72.2059 37.0387C71.832 37.1289 71.3776 37.1837 70.8426 37.203C69.85 37.2417 68.9798 37.1096 68.2321 36.8066C67.4909 36.5037 66.914 36.0332 66.5015 35.395C66.089 34.7569 65.8859 33.9512 65.8924 32.9779V18.5913ZM78.2925 28.4144V37H74.1738V17.199H78.1765V24.7694H78.3505C78.6857 23.8928 79.2271 23.2064 79.9748 22.71C80.7225 22.2073 81.6604 21.9559 82.7884 21.9559C83.8197 21.9559 84.7188 22.1815 85.4858 22.6327C86.2593 23.0774 86.8588 23.7188 87.2842 24.5567C87.716 25.3882 87.9287 26.3841 87.9223 27.5443V37H83.8035V28.2791C83.81 27.3638 83.5779 26.6515 83.1074 26.1423C82.6433 25.6331 81.9923 25.3785 81.1544 25.3785C80.5936 25.3785 80.0973 25.4978 79.6654 25.7363C79.24 25.9748 78.9049 26.3228 78.6599 26.7805C78.4214 27.2317 78.299 27.7763 78.2925 28.4144ZM96.6267 37H89.6074V17.199H96.6847C98.6764 17.199 100.391 17.5954 101.828 18.3883C103.266 19.1746 104.371 20.3058 105.145 21.7819C105.925 23.2579 106.314 25.024 106.314 27.0802C106.314 29.1428 105.925 30.9153 105.145 32.3978C104.371 33.8803 103.259 35.018 101.809 35.8108C100.365 36.6036 98.6377 37 96.6267 37ZM93.7938 33.413H96.4527C97.6902 33.413 98.7312 33.1939 99.5756 32.7556C100.426 32.3108 101.065 31.6243 101.49 30.6962C101.922 29.7616 102.138 28.5562 102.138 27.0802C102.138 25.617 101.922 24.4214 101.49 23.4932C101.065 22.565 100.43 21.8818 99.5852 21.4435C98.7409 21.0052 97.6999 20.786 96.4623 20.786H93.7938V33.413ZM111.939 37.2804C110.992 37.2804 110.148 37.116 109.406 36.7873C108.665 36.4521 108.079 35.959 107.647 35.308C107.221 34.6506 107.009 33.832 107.009 32.8522C107.009 32.0272 107.16 31.3343 107.463 30.7735C107.766 30.2128 108.178 29.7616 108.701 29.4199C109.223 29.0783 109.816 28.8205 110.48 28.6465C111.15 28.4724 111.852 28.35 112.587 28.2791C113.451 28.1888 114.147 28.105 114.676 28.0277C115.204 27.9439 115.588 27.8214 115.826 27.6603C116.065 27.4991 116.184 27.2607 116.184 26.9448V26.8868C116.184 26.2745 115.991 25.8007 115.604 25.4656C115.224 25.1304 114.682 24.9628 113.98 24.9628C113.238 24.9628 112.648 25.1272 112.21 25.4559C111.772 25.7782 111.482 26.1842 111.34 26.6741L107.531 26.3647C107.724 25.4623 108.104 24.6824 108.672 24.025C109.239 23.3611 109.97 22.8519 110.866 22.4973C111.769 22.1364 112.813 21.9559 113.999 21.9559C114.824 21.9559 115.613 22.0526 116.368 22.246C117.128 22.4393 117.802 22.7391 118.388 23.1451C118.981 23.5512 119.449 24.0733 119.79 24.7114C120.132 25.3431 120.303 26.1004 120.303 26.9835V37H116.397V34.9406H116.281C116.042 35.4047 115.723 35.814 115.323 36.1685C114.924 36.5166 114.444 36.7905 113.883 36.9903C113.322 37.1837 112.674 37.2804 111.939 37.2804ZM113.119 34.4379C113.725 34.4379 114.26 34.3186 114.724 34.0801C115.188 33.8352 115.552 33.5065 115.817 33.094C116.081 32.6814 116.213 32.2141 116.213 31.692V30.1161C116.084 30.1999 115.907 30.2772 115.681 30.3481C115.462 30.4126 115.214 30.4738 114.937 30.5318C114.66 30.5834 114.382 30.6317 114.105 30.6768C113.828 30.7155 113.577 30.751 113.351 30.7832C112.868 30.8541 112.445 30.9669 112.084 31.1216C111.724 31.2763 111.443 31.4858 111.243 31.75C111.044 32.0079 110.944 32.3301 110.944 32.7169C110.944 33.2777 111.147 33.7063 111.553 34.0028C111.965 34.2928 112.487 34.4379 113.119 34.4379ZM129.764 22.1493V25.2432H120.82V22.1493H129.764ZM122.851 18.5913H126.969V32.4365C126.969 32.8168 127.027 33.1133 127.143 33.326C127.259 33.5323 127.421 33.6773 127.627 33.7611C127.84 33.8449 128.085 33.8868 128.362 33.8868C128.555 33.8868 128.748 33.8706 128.942 33.8384C129.135 33.7997 129.283 33.7707 129.387 33.7514L130.034 36.8163C129.828 36.8808 129.538 36.9549 129.164 37.0387C128.79 37.1289 128.336 37.1837 127.801 37.203C126.808 37.2417 125.938 37.1096 125.19 36.8066C124.449 36.5037 123.872 36.0332 123.46 35.395C123.047 34.7569 122.844 33.9512 122.851 32.9779V18.5913ZM135.048 37.2804C134.1 37.2804 133.256 37.116 132.515 36.7873C131.773 36.4521 131.187 35.959 130.755 35.308C130.33 34.6506 130.117 33.832 130.117 32.8522C130.117 32.0272 130.268 31.3343 130.571 30.7735C130.874 30.2128 131.287 29.7616 131.809 29.4199C132.331 29.0783 132.924 28.8205 133.588 28.6465C134.258 28.4724 134.961 28.35 135.696 28.2791C136.559 28.1888 137.255 28.105 137.784 28.0277C138.313 27.9439 138.696 27.8214 138.935 27.6603C139.173 27.4991 139.292 27.2607 139.292 26.9448V26.8868C139.292 26.2745 139.099 25.8007 138.712 25.4656C138.332 25.1304 137.79 24.9628 137.088 24.9628C136.347 24.9628 135.757 25.1272 135.319 25.4559C134.88 25.7782 134.59 26.1842 134.448 26.6741L130.639 26.3647C130.832 25.4623 131.213 24.6824 131.78 24.025C132.347 23.3611 133.079 22.8519 133.975 22.4973C134.877 22.1364 135.921 21.9559 137.107 21.9559C137.932 21.9559 138.722 22.0526 139.476 22.246C140.237 22.4393 140.91 22.7391 141.497 23.1451C142.09 23.5512 142.557 24.0733 142.899 24.7114C143.24 25.3431 143.411 26.1004 143.411 26.9835V37H139.505V34.9406H139.389C139.15 35.4047 138.831 35.814 138.432 36.1685C138.032 36.5166 137.552 36.7905 136.991 36.9903C136.43 37.1837 135.783 37.2804 135.048 37.2804ZM136.227 34.4379C136.833 34.4379 137.368 34.3186 137.832 34.0801C138.296 33.8352 138.661 33.5065 138.925 33.094C139.189 32.6814 139.321 32.2141 139.321 31.692V30.1161C139.192 30.1999 139.015 30.2772 138.789 30.3481C138.57 30.4126 138.322 30.4738 138.045 30.5318C137.768 30.5834 137.491 30.6317 137.214 30.6768C136.936 30.7155 136.685 30.751 136.459 30.7832C135.976 30.8541 135.554 30.9669 135.193 31.1216C134.832 31.2763 134.551 31.4858 134.352 31.75C134.152 32.0079 134.052 32.3301 134.052 32.7169C134.052 33.2777 134.255 33.7063 134.661 34.0028C135.074 34.2928 135.596 34.4379 136.227 34.4379Z" fill="#456E8B"/>
<path d="M19.1947 55.1161H22.7527L24.5413 57.4172L26.301 59.4669L29.6173 63.6243H25.7112L23.4295 60.8205L22.2596 59.1575L19.1947 55.1161ZM29.917 52.0995C29.917 54.2588 29.5077 56.0958 28.6891 57.6105C27.8769 59.1253 26.7683 60.2822 25.3631 61.0815C23.9644 61.8743 22.3917 62.2707 20.645 62.2707C18.8853 62.2707 17.3061 61.8711 15.9074 61.0718C14.5087 60.2726 13.4033 59.1156 12.5911 57.6009C11.779 56.0861 11.3729 54.2524 11.3729 52.0995C11.3729 49.9402 11.779 48.1032 12.5911 46.5885C13.4033 45.0738 14.5087 43.92 15.9074 43.1272C17.3061 42.328 18.8853 41.9283 20.645 41.9283C22.3917 41.9283 23.9644 42.328 25.3631 43.1272C26.7683 43.92 27.8769 45.0738 28.6891 46.5885C29.5077 48.1032 29.917 49.9402 29.917 52.0995ZM25.6725 52.0995C25.6725 50.7008 25.4631 49.5213 25.0441 48.5609C24.6316 47.6005 24.0482 46.8721 23.2941 46.3758C22.54 45.8795 21.6569 45.6313 20.645 45.6313C19.633 45.6313 18.7499 45.8795 17.9958 46.3758C17.2417 46.8721 16.6551 47.6005 16.2361 48.5609C15.8236 49.5213 15.6174 50.7008 15.6174 52.0995C15.6174 53.4982 15.8236 54.6778 16.2361 55.6382C16.6551 56.5986 17.2417 57.3269 17.9958 57.8232C18.7499 58.3195 19.633 58.5677 20.645 58.5677C21.6569 58.5677 22.54 58.3195 23.2941 57.8232C24.0482 57.3269 24.6316 56.5986 25.0441 55.6382C25.4631 54.6778 25.6725 53.4982 25.6725 52.0995ZM40.8306 55.6768V47.1493H44.9494V62H40.995V59.3025H40.8403C40.5051 60.1727 39.9476 60.872 39.1676 61.4006C38.3942 61.9291 37.4499 62.1934 36.3348 62.1934C35.3422 62.1934 34.4688 61.9678 33.7146 61.5166C32.9605 61.0654 32.3707 60.424 31.9453 59.5926C31.5264 58.7611 31.3137 57.7652 31.3072 56.605V47.1493H35.426V55.8702C35.4324 56.7468 35.6677 57.4397 36.1318 57.9489C36.5958 58.4581 37.2178 58.7127 37.9978 58.7127C38.4941 58.7127 38.9582 58.5999 39.39 58.3743C39.8219 58.1423 40.1699 57.8007 40.4342 57.3495C40.7049 56.8983 40.8371 56.3407 40.8306 55.6768ZM50.8451 62.2804C49.8976 62.2804 49.0532 62.116 48.312 61.7873C47.5707 61.4521 46.9842 60.959 46.5523 60.308C46.1269 59.6506 45.9142 58.832 45.9142 57.8522C45.9142 57.0272 46.0657 56.3343 46.3686 55.7735C46.6715 55.2128 47.0841 54.7616 47.6062 54.4199C48.1283 54.0783 48.7213 53.8205 49.3852 53.6465C50.0555 53.4724 50.7581 53.35 51.4929 53.2791C52.3566 53.1888 53.0527 53.105 53.5813 53.0277C54.1098 52.9439 54.4933 52.8214 54.7318 52.6603C54.9703 52.4991 55.0895 52.2607 55.0895 51.9448V51.8868C55.0895 51.2745 54.8962 50.8007 54.5094 50.4656C54.1291 50.1304 53.5877 49.9628 52.8851 49.9628C52.1439 49.9628 51.5541 50.1272 51.1158 50.4559C50.6775 50.7782 50.3874 51.1842 50.2456 51.6741L46.4363 51.3647C46.6297 50.4623 47.0099 49.6824 47.5772 49.025C48.1444 48.3611 48.876 47.8519 49.7719 47.4973C50.6743 47.1364 51.7185 46.9559 52.9045 46.9559C53.7295 46.9559 54.5191 47.0526 55.2732 47.246C56.0338 47.4393 56.7074 47.7391 57.2939 48.1451C57.8869 48.5512 58.3542 49.0733 58.6959 49.7114C59.0375 50.3431 59.2083 51.1004 59.2083 51.9835V62H55.3022V59.9406H55.1862C54.9477 60.4047 54.6287 60.814 54.229 61.1685C53.8294 61.5166 53.3492 61.7905 52.7884 61.9903C52.2277 62.1837 51.5799 62.2804 50.8451 62.2804ZM52.0246 59.4379C52.6305 59.4379 53.1655 59.3186 53.6296 59.0801C54.0937 58.8352 54.4579 58.5065 54.7221 58.094C54.9864 57.6814 55.1185 57.2141 55.1185 56.692V55.1161C54.9896 55.1999 54.8124 55.2772 54.5868 55.3481C54.3676 55.4126 54.1195 55.4738 53.8423 55.5318C53.5651 55.5834 53.288 55.6317 53.0108 55.6768C52.7337 55.7155 52.4823 55.751 52.2567 55.7832C51.7733 55.8541 51.3511 55.9669 50.9901 56.1216C50.6292 56.2763 50.3488 56.4858 50.149 56.75C49.9491 57.0079 49.8492 57.3301 49.8492 57.7169C49.8492 58.2777 50.0523 58.7063 50.4584 59.0028C50.8709 59.2928 51.393 59.4379 52.0246 59.4379ZM64.8889 42.199V62H60.7701V42.199H64.8889ZM66.5547 62V47.1493H70.6734V62H66.5547ZM68.6237 45.2349C68.0114 45.2349 67.4861 45.0319 67.0478 44.6258C66.6159 44.2133 66.4 43.7202 66.4 43.1465C66.4 42.5793 66.6159 42.0927 67.0478 41.6866C67.4861 41.2741 68.0114 41.0678 68.6237 41.0678C69.236 41.0678 69.7581 41.2741 70.19 41.6866C70.6283 42.0927 70.8474 42.5793 70.8474 43.1465C70.8474 43.7202 70.6283 44.2133 70.19 44.6258C69.7581 45.0319 69.236 45.2349 68.6237 45.2349ZM80.2383 47.1493V50.2432H71.295V47.1493H80.2383ZM73.3254 43.5913H77.4441V57.4365C77.4441 57.8168 77.5021 58.1133 77.6182 58.326C77.7342 58.5323 77.8953 58.6773 78.1016 58.7611C78.3143 58.8449 78.5592 58.8868 78.8364 58.8868C79.0298 58.8868 79.2231 58.8706 79.4165 58.8384C79.6099 58.7997 79.7581 58.7707 79.8612 58.7514L80.509 61.8163C80.3028 61.8808 80.0127 61.9549 79.6389 62.0387C79.265 62.1289 78.8106 62.1837 78.2756 62.203C77.283 62.2417 76.4128 62.1096 75.6651 61.8066C74.9239 61.5037 74.347 61.0332 73.9345 60.395C73.522 59.7569 73.3189 58.9512 73.3254 57.9779V43.5913ZM83.8305 67.569C83.3084 67.569 82.8186 67.5271 82.3609 67.4433C81.9097 67.366 81.5359 67.2661 81.2394 67.1436L82.1675 64.069C82.651 64.2173 83.086 64.2979 83.4728 64.3108C83.866 64.3236 84.2044 64.2334 84.488 64.04C84.778 63.8467 85.0133 63.5179 85.1938 63.0539L85.4355 62.4254L80.1082 47.1493H84.4396L87.5142 58.0553H87.6689L90.7725 47.1493H95.1329L89.3609 63.605C89.0837 64.4042 88.7066 65.1003 88.2297 65.6933C87.7591 66.2928 87.1629 66.7536 86.441 67.0759C85.7191 67.4047 84.8489 67.569 83.8305 67.569Z" fill="#D34730"/>
<path d="M98.0145 62.2514C97.3764 62.2514 96.8285 62.0258 96.3709 61.5746C95.9197 61.1169 95.6941 60.5691 95.6941 59.931C95.6941 59.2993 95.9197 58.7579 96.3709 58.3067C96.8285 57.8555 97.3764 57.6299 98.0145 57.6299C98.6333 57.6299 99.1747 57.8555 99.6388 58.3067C100.103 58.7579 100.335 59.2993 100.335 59.931C100.335 60.3564 100.225 60.7463 100.006 61.1008C99.7935 61.4489 99.5131 61.7293 99.165 61.942C98.817 62.1482 98.4335 62.2514 98.0145 62.2514ZM108.793 62.2901C107.291 62.2901 105.992 61.971 104.896 61.3329C103.807 60.6883 102.966 59.7924 102.373 58.6451C101.78 57.4913 101.483 56.1538 101.483 54.6326C101.483 53.0986 101.78 51.7579 102.373 50.6106C102.966 49.4568 103.807 48.5609 104.896 47.9228C105.992 47.2782 107.291 46.9559 108.793 46.9559C110.295 46.9559 111.59 47.2782 112.679 47.9228C113.775 48.5609 114.62 49.4568 115.213 50.6106C115.806 51.7579 116.102 53.0986 116.102 54.6326C116.102 56.1538 115.806 57.4913 115.213 58.6451C114.62 59.7924 113.775 60.6883 112.679 61.3329C111.59 61.971 110.295 62.2901 108.793 62.2901ZM108.812 59.0995C109.495 59.0995 110.066 58.9061 110.523 58.5194C110.981 58.1262 111.326 57.5912 111.558 56.9144C111.796 56.2376 111.916 55.4674 111.916 54.6036C111.916 53.7399 111.796 52.9697 111.558 52.2929C111.326 51.6161 110.981 51.0811 110.523 50.6879C110.066 50.2947 109.495 50.0982 108.812 50.0982C108.122 50.0982 107.542 50.2947 107.072 50.6879C106.608 51.0811 106.256 51.6161 106.018 52.2929C105.786 52.9697 105.67 53.7399 105.67 54.6036C105.67 55.4674 105.786 56.2376 106.018 56.9144C106.256 57.5912 106.608 58.1262 107.072 58.5194C107.542 58.9061 108.122 59.0995 108.812 59.0995ZM117.147 62V47.1493H121.14V49.7404H121.294C121.565 48.8187 122.02 48.1226 122.658 47.652C123.296 47.1751 124.031 46.9366 124.862 46.9366C125.068 46.9366 125.291 46.9495 125.529 46.9752C125.768 47.001 125.977 47.0365 126.158 47.0816V50.7363C125.964 50.6783 125.697 50.6267 125.355 50.5816C125.014 50.5365 124.701 50.5139 124.417 50.5139C123.811 50.5139 123.27 50.646 122.793 50.9103C122.323 51.1681 121.949 51.5291 121.672 51.9932C121.401 52.4573 121.265 52.9922 121.265 53.5981V62H117.147ZM132.653 67.8784C131.319 67.8784 130.175 67.6947 129.221 67.3273C128.273 66.9664 127.519 66.4733 126.958 65.848C126.397 65.2228 126.033 64.5202 125.866 63.7403L129.675 63.2279C129.791 63.5244 129.975 63.8016 130.226 64.0594C130.477 64.3172 130.809 64.5235 131.222 64.6782C131.641 64.8393 132.15 64.9199 132.75 64.9199C133.645 64.9199 134.383 64.7007 134.964 64.2624C135.55 63.8306 135.843 63.1054 135.843 62.087V59.3702H135.669C135.489 59.7827 135.218 60.1727 134.857 60.5401C134.496 60.9075 134.032 61.2072 133.465 61.4392C132.898 61.6713 132.221 61.7873 131.435 61.7873C130.32 61.7873 129.304 61.5295 128.389 61.0138C127.48 60.4917 126.755 59.6957 126.214 58.6257C125.679 57.5493 125.411 56.1893 125.411 54.5456C125.411 52.8633 125.685 51.4582 126.233 50.3302C126.781 49.2022 127.509 48.3578 128.418 47.7971C129.333 47.2363 130.336 46.9559 131.425 46.9559C132.256 46.9559 132.953 47.0977 133.513 47.3813C134.074 47.6585 134.525 48.0065 134.867 48.4255C135.215 48.838 135.482 49.2441 135.669 49.6437H135.824V47.1493H139.914V62.145C139.914 63.4084 139.604 64.4655 138.986 65.3163C138.367 66.1671 137.51 66.8052 136.414 67.2306C135.325 67.6625 134.071 67.8784 132.653 67.8784ZM132.74 58.6934C133.404 58.6934 133.965 58.529 134.422 58.2003C134.886 57.8651 135.241 57.3882 135.486 56.7694C135.737 56.1441 135.863 55.3965 135.863 54.5263C135.863 53.6561 135.74 52.902 135.495 52.2639C135.25 51.6193 134.896 51.1198 134.432 50.7653C133.968 50.4108 133.404 50.2335 132.74 50.2335C132.063 50.2335 131.493 50.4172 131.029 50.7846C130.564 51.1456 130.213 51.6483 129.975 52.2929C129.736 52.9375 129.617 53.6819 129.617 54.5263C129.617 55.3836 129.736 56.1248 129.975 56.75C130.22 57.3688 130.571 57.849 131.029 58.1906C131.493 58.5258 132.063 58.6934 132.74 58.6934Z" fill="#466E89"/>
<path d="M89.4102 42.2263H143.863" stroke="#5F5F5F" stroke-width="2.26886"/>
</svg>
